<svg width="20" height="21" viewBox="0 0 20 21" fill="none" xmlns="http://www.w3.org/2000/svg">
<path d="M11.5 20.8145C9.7 20.8145 8.16667 20.1811 6.9 18.9145C5.63333 17.6478 5 16.1145 5 14.3145V13.7395C3.56667 13.5061 2.375 12.8353 1.425 11.727C0.475 10.6186 0 9.31445 0 7.81445V2.81445C0 2.53112 0.0958333 2.29362 0.2875 2.10195C0.479167 1.91029 0.716667 1.81445 1 1.81445H3C3 1.53112 3.09583 1.29362 3.2875 1.10195C3.47917 0.910286 3.71667 0.814453 4 0.814453C4.28333 0.814453 4.52083 0.910286 4.7125 1.10195C4.90417 1.29362 5 1.53112 5 1.81445V3.81445C5 4.09779 4.90417 4.33529 4.7125 4.52695C4.52083 4.71862 4.28333 4.81445 4 4.81445C3.71667 4.81445 3.47917 4.71862 3.2875 4.52695C3.09583 4.33529 3 4.09779 3 3.81445H2V7.81445C2 8.91445 2.39167 9.85612 3.175 10.6395C3.95833 11.4228 4.9 11.8145 6 11.8145C7.1 11.8145 8.04167 11.4228 8.825 10.6395C9.60833 9.85612 10 8.91445 10 7.81445V3.81445H9C9 4.09779 8.90417 4.33529 8.7125 4.52695C8.52083 4.71862 8.28333 4.81445 8 4.81445C7.71667 4.81445 7.47917 4.71862 7.2875 4.52695C7.09583 4.33529 7 4.09779 7 3.81445V1.81445C7 1.53112 7.09583 1.29362 7.2875 1.10195C7.47917 0.910286 7.71667 0.814453 8 0.814453C8.28333 0.814453 8.52083 0.910286 8.7125 1.10195C8.90417 1.29362 9 1.53112 9 1.81445H11C11.2833 1.81445 11.5208 1.91029 11.7125 2.10195C11.9042 2.29362 12 2.53112 12 2.81445V7.81445C12 9.31445 11.525 10.6186 10.575 11.727C9.625 12.8353 8.43333 13.5061 7 13.7395V14.3145C7 15.5645 7.4375 16.627 8.3125 17.502C9.1875 18.377 10.25 18.8145 11.5 18.8145C12.75 18.8145 13.8125 18.377 14.6875 17.502C15.5625 16.627 16 15.5645 16 14.3145V12.6395C15.4167 12.4228 14.9375 12.0603 14.5625 11.552C14.1875 11.0436 14 10.4645 14 9.81445C14 8.98112 14.2917 8.27279 14.875 7.68945C15.4583 7.10612 16.1667 6.81445 17 6.81445C17.8333 6.81445 18.5417 7.10612 19.125 7.68945C19.7083 8.27279 20 8.98112 20 9.81445C20 10.4645 19.8125 11.0436 19.4375 11.552C19.0625 12.0603 18.5833 12.4228 18 12.6395V14.3145C18 16.1145 17.3667 17.6478 16.1 18.9145C14.8333 20.1811 13.3 20.8145 11.5 20.8145Z" fill="#16A342"/>
</svg>
