<svg width="22" height="14" viewBox="0 0 22 14" fill="none" xmlns="http://www.w3.org/2000/svg">
<path id="Union" fill-rule="evenodd" clip-rule="evenodd" d="M1.375 13.2C0.99 13.2 0.66 13.068 0.39875 12.8172C0.1375 12.5664 0 12.2496 0 11.88V1.32C0 0.9504 0.1375 0.6336 0.39875 0.3828C0.66 0.132 0.99 0 1.375 0C1.76 0 2.09 0.132 2.35125 0.3828C2.6125 0.6336 2.75 0.9504 2.75 1.32V7.92H11V2.64C11 2.2704 11.1375 1.9536 11.3988 1.7028C11.66 1.452 11.99 1.32 12.375 1.32H19.25C20.0063 1.32 20.6525 1.584 21.1888 2.0988C21.725 2.6136 22 3.234 22 3.96V11.88C22 12.2496 21.8625 12.5664 21.6012 12.8172C21.34 13.068 21.01 13.2 20.625 13.2C20.24 13.2 19.91 13.068 19.6488 12.8172C19.3875 12.5664 19.25 12.2496 19.25 11.88V10.56H2.75V11.88C2.75 12.2496 2.6125 12.5664 2.35125 12.8172C2.09 13.068 1.76 13.2 1.375 13.2ZM5.21164 1.91135C4.67539 2.4476 4.40039 3.09385 4.40039 3.8501C4.40039 4.60635 4.67539 5.2526 5.21164 5.78885C5.74789 6.3251 6.39414 6.6001 7.15039 6.6001C7.90664 6.6001 8.55289 6.3251 9.08914 5.78885C9.62539 5.2526 9.90039 4.60635 9.90039 3.8501C9.90039 3.09385 9.62539 2.4476 9.08914 1.91135C8.55289 1.3751 7.90664 1.1001 7.15039 1.1001C6.39414 1.1001 5.74789 1.3751 5.21164 1.91135Z" fill="#49CDC6"/>
</svg>
