<svg width="52" height="52" viewBox="0 0 52 52" fill="none" xmlns="http://www.w3.org/2000/svg">
<rect width="52" height="52" rx="26" fill="#E2F6FF"/>
<path fill-rule="evenodd" clip-rule="evenodd" d="M14.8123 8.5C13.7077 8.5 12.8123 9.39543 12.8123 10.5V20.9609C12.8123 22.0654 13.7077 22.9609 14.8123 22.9609H18.9363C20.0408 22.9609 20.9363 22.0654 20.9363 20.9609V10.5C20.9363 9.39543 20.0408 8.5 18.9363 8.5H14.8123ZM13.4066 26.5409H11.6367C11.0089 26.5409 10.5 26.032 10.5 25.4042C10.5 24.7764 11.0089 24.2675 11.6367 24.2675H40.3633C40.9911 24.2675 41.5 24.7764 41.5 25.4042C41.5 26.032 40.9911 26.5409 40.3633 26.5409H38.5926C38.1346 29.1128 36.9064 31.5032 35.0461 33.3763C33.2971 35.1374 31.0937 35.6459 28.7134 35.7923L28.998 41.3985C29.056 42.5415 28.1449 43.4999 27.0006 43.4999H20.6151C19.4707 43.4999 18.5596 42.5414 18.6176 41.3985L18.9522 34.807C18.2378 34.4589 17.5674 33.9949 16.953 33.3763C15.0928 31.5032 13.8645 29.1128 13.4066 26.5409Z" fill="#52CBFF"/>
</svg>
