<svg width="25" height="24" viewBox="0 0 25 24" fill="none" xmlns="http://www.w3.org/2000/svg">
<circle cx="12.1016" cy="12" r="10.5" fill="white" stroke="black"/>
<path d="M10.1016 7.95V10.9883C10.1016 11.3602 10.1016 11.5461 10.0558 11.7184C10.0152 11.8711 9.94848 12.0154 9.85861 12.1446C9.75719 12.2906 9.61611 12.4096 9.33396 12.6477L6.86917 14.7273C6.58701 14.9654 6.44594 15.0844 6.34451 15.2304C6.25465 15.3596 6.18791 15.5039 6.14735 15.6566C6.10156 15.8289 6.10156 16.0148 6.10156 16.3867V16.59C6.10156 17.3461 6.10156 17.7241 6.24689 18.0129C6.37472 18.2669 6.57869 18.4734 6.82958 18.6029C7.11479 18.75 7.48816 18.75 8.2349 18.75H15.9682C16.715 18.75 17.0883 18.75 17.3736 18.6029C17.6244 18.4734 17.8284 18.2669 17.9562 18.0129C18.1016 17.7241 18.1016 17.3461 18.1016 16.59V16.3867C18.1016 16.0148 18.1016 15.8289 18.0558 15.6566C18.0152 15.5039 17.9485 15.3596 17.8586 15.2304C17.7572 15.0844 17.6161 14.9654 17.334 14.7273L14.8692 12.6477C14.587 12.4096 14.4459 12.2906 14.3445 12.1446C14.2546 12.0154 14.1879 11.8711 14.1473 11.7184C14.1016 11.5461 14.1016 11.3602 14.1016 10.9883V7.95M9.6349 7.95H14.5682C14.7549 7.95 14.8483 7.95 14.9196 7.91321C14.9823 7.88086 15.0333 7.82923 15.0652 7.76572C15.1016 7.69353 15.1016 7.59902 15.1016 7.41V5.79C15.1016 5.60098 15.1016 5.50647 15.0652 5.43428C15.0333 5.37077 14.9823 5.31914 14.9196 5.28679C14.8483 5.25 14.7549 5.25 14.5682 5.25H9.6349C9.44821 5.25 9.35487 5.25 9.28357 5.28679C9.22084 5.31914 9.16985 5.37077 9.13789 5.43428C9.10156 5.50647 9.10156 5.60098 9.10156 5.79V7.41C9.10156 7.59902 9.10156 7.69353 9.13789 7.76572C9.16985 7.82923 9.22084 7.88086 9.28357 7.91321C9.35487 7.95 9.44821 7.95 9.6349 7.95ZM7.76823 15.375H16.4349C16.7447 15.375 16.8996 15.375 17.0283 15.4009C17.5573 15.5075 17.9707 15.9261 18.0759 16.4616C18.1016 16.592 18.1016 16.7489 18.1016 17.0625C18.1016 17.3761 18.1016 17.533 18.0759 17.6634C17.9707 18.1989 17.5573 18.6175 17.0283 18.7241C16.8996 18.75 16.7447 18.75 16.4349 18.75H7.76823C7.45846 18.75 7.30357 18.75 7.17478 18.7241C6.64585 18.6175 6.23239 18.1989 6.12718 17.6634C6.10156 17.533 6.10156 17.3761 6.10156 17.0625C6.10156 16.7489 6.10156 16.592 6.12718 16.4616C6.23239 15.9261 6.64585 15.5075 7.17478 15.4009C7.30357 15.375 7.45846 15.375 7.76823 15.375Z" stroke="black" stroke-linecap="round" stroke-linejoin="round"/>
<rect x="6.10156" y="15" width="12" height="3.75" fill="black"/>
</svg>
